<svg width="23" height="20" viewBox="0 0 23 20" fill="none" xmlns="http://www.w3.org/2000/svg">
<ellipse cx="3.67878" cy="10.7186" rx="2.17878" ry="2.00276" stroke="#103722" stroke-width="1.5"/>
<path fill-rule="evenodd" clip-rule="evenodd" d="M4.48486 0.756348C4.48486 0.342134 4.14908 0.00634766 3.73486 0.00634766C3.32065 0.00634766 2.98486 0.342134 2.98486 0.756348V6.02652C2.98486 6.39925 3.36192 6.66213 3.73465 6.66213V6.66213V6.66213C4.10757 6.66213 4.48486 6.39913 4.48486 6.02621V0.756348ZM4.48486 13.4604C4.48486 13.0875 4.10757 12.8245 3.73465 12.8245V12.8245V12.8245C3.36192 12.8245 2.98486 13.0873 2.98486 13.4601V19.2433C2.98486 19.6575 3.32065 19.9933 3.73486 19.9933C4.14908 19.9933 4.48486 19.6575 4.48486 19.2433V13.4604Z" fill="#103722"/>
<ellipse cx="11.5001" cy="5.58381" rx="2.17878" ry="2.00276" stroke="#103722" stroke-width="1.5"/>
<path fill-rule="evenodd" clip-rule="evenodd" d="M12.3066 0.756348C12.3066 0.342134 11.9709 0.00634766 11.5566 0.00634766C11.1424 0.00634766 10.8066 0.342134 10.8066 0.756348V0.891867C10.8066 1.26438 11.1834 1.52714 11.5559 1.52714V1.52714V1.52714C11.9291 1.52714 12.3066 1.26401 12.3066 0.890873V0.756348ZM12.3066 8.32573C12.3066 7.9526 11.9291 7.68947 11.5559 7.68947V7.68947V7.68947C11.1834 7.68947 10.8066 7.95222 10.8066 8.32474V19.2433C10.8066 19.6575 11.1424 19.9933 11.5566 19.9933C11.9709 19.9933 12.3066 19.6575 12.3066 19.2433V8.32573Z" fill="#103722"/>
<ellipse cx="19.3214" cy="14.8275" rx="2.17878" ry="2.00276" stroke="#103722" stroke-width="1.5"/>
<path fill-rule="evenodd" clip-rule="evenodd" d="M20.1274 0.756348C20.1274 0.342134 19.7917 0.00634766 19.3774 0.00634766C18.9632 0.00634766 18.6274 0.342134 18.6274 0.756348V10.1346C18.6274 10.5073 19.0045 10.7702 19.3772 10.7702V10.7702V10.7702C19.7501 10.7702 20.1274 10.5072 20.1274 10.1343V0.756348ZM20.1274 17.5685C20.1274 17.1956 19.7501 16.9326 19.3772 16.9326V16.9326V16.9326C19.0045 16.9326 18.6274 17.1954 18.6274 17.5682V19.2433C18.6274 19.6575 18.9632 19.9933 19.3774 19.9933C19.7917 19.9933 20.1274 19.6575 20.1274 19.2433V17.5685Z" fill="#103722"/>
</svg>
