<?xml version="1.0" encoding="UTF-8" standalone="no"?>
<svg
   xmlns:dc="http://purl.org/dc/elements/1.1/"
   xmlns:cc="http://creativecommons.org/ns#"
   xmlns:rdf="http://www.w3.org/1999/02/22-rdf-syntax-ns#"
   xmlns:svg="http://www.w3.org/2000/svg"
   xmlns="http://www.w3.org/2000/svg"
   xmlns:sodipodi="http://sodipodi.sourceforge.net/DTD/sodipodi-0.dtd"
   xmlns:inkscape="http://www.inkscape.org/namespaces/inkscape"
   id="svg"
   width="400"
   height="139.16500994035786"
   viewBox="0, 0, 400,139.16500994035786"
   version="1.1"
   sodipodi:docname="image2vector.svg"
   inkscape:version="0.92.4 (5da689c313, 2019-01-14)">
  <metadata
     id="metadata10">
    <rdf:RDF>
      <cc:Work
         rdf:about="">
        <dc:format>image/svg+xml</dc:format>
        <dc:type
           rdf:resource="http://purl.org/dc/dcmitype/StillImage" />
      </cc:Work>
    </rdf:RDF>
  </metadata>
  <defs
     id="defs8" />
  <sodipodi:namedview
     pagecolor="#ffffff"
     bordercolor="#666666"
     borderopacity="1"
     objecttolerance="10"
     gridtolerance="10"
     guidetolerance="10"
     inkscape:pageopacity="0"
     inkscape:pageshadow="2"
     inkscape:window-width="1920"
     inkscape:window-height="1017"
     id="namedview6"
     showgrid="false"
     inkscape:zoom="5.68"
     inkscape:cx="197.40236"
     inkscape:cy="64.319821"
     inkscape:window-x="-8"
     inkscape:window-y="-8"
     inkscape:window-maximized="1"
     inkscape:current-layer="svgg" />
  <g
     id="svgg">
    <path
       id="path0"
       d="m 327.5,39.272 c -0.596,0.136 -1.683,0.349 -2.417,0.472 -1.506,0.253 -2.609,0.593 -3.85,1.184 -0.467,0.223 -0.94,0.405 -1.05,0.405 -0.301,0 -2.825,1.737 -3.697,2.543 -2.031,1.881 -3.622,4.572 -4.01,6.783 -0.537,3.061 -0.598,4.676 -0.224,5.909 0.136,0.45 0.248,1.037 0.248,1.304 0,0.267 0.18,0.799 0.399,1.182 0.22,0.383 0.456,0.884 0.524,1.113 0.186,0.62 1.275,2.001 2.66,3.372 0.486,0.481 2.733,2.001 3.417,2.312 1.737,0.789 2.132,0.956 2.5,1.056 0.229,0.063 0.567,0.18 0.75,0.261 0.881,0.39 3.423,1.165 3.817,1.165 0.244,0 0.723,0.119 1.063,0.263 0.612,0.26 2.102,0.642 4.87,1.248 0.779,0.171 1.679,0.422 2,0.559 0.321,0.136 1.013,0.331 1.539,0.434 0.525,0.102 0.995,0.25 1.044,0.33 0.049,0.079 0.492,0.227 0.983,0.329 0.491,0.102 1.181,0.332 1.532,0.512 0.352,0.179 0.763,0.325 0.915,0.325 0.151,0 0.454,0.135 0.673,0.299 0.218,0.164 0.585,0.39 0.814,0.503 2.158,1.063 4.343,3.623 4.771,5.59 0.469,2.154 0.142,6.391 -0.536,6.954 -0.129,0.107 -0.235,0.265 -0.235,0.351 0,0.176 -0.94,1.465 -1.611,2.209 -0.383,0.425 -0.868,0.786 -2.312,1.723 -0.18,0.116 -0.589,0.324 -0.91,0.461 -0.321,0.137 -0.809,0.36 -1.084,0.495 -2.809,1.377 -12.732,1.929 -15.312,0.851 -0.315,-0.131 -0.999,-0.327 -1.521,-0.436 -0.521,-0.108 -1.259,-0.338 -1.64,-0.511 -0.381,-0.173 -0.829,-0.316 -0.995,-0.318 -0.282,-0.004 -1.772,-0.619 -2.532,-1.045 -0.183,-0.103 -0.557,-0.3 -0.831,-0.438 -1.104,-0.558 -3.097,-2.009 -4.006,-2.918 -0.44,-0.44 -1.182,-0.345 -1.465,0.189 -0.134,0.252 -0.402,0.755 -0.596,1.118 -0.347,0.652 -0.469,1.421 -0.227,1.426 0.069,0.002 0.5,0.358 0.957,0.792 0.458,0.434 0.991,0.901 1.186,1.039 1.578,1.114 2.67,1.782 3.566,2.18 0.229,0.102 0.716,0.326 1.083,0.498 1.128,0.53 3.998,1.559 5.083,1.823 3.208,0.781 9.965,1.146 12.5,0.675 0.504,-0.094 1.517,-0.257 2.25,-0.362 0.734,-0.105 1.859,-0.38 2.5,-0.611 2.498,-0.896 3.749,-1.418 3.933,-1.639 0.105,-0.127 0.283,-0.231 0.394,-0.231 0.592,0 4.388,-3.576 4.842,-4.56 0.133,-0.288 0.315,-0.636 0.405,-0.773 0.991,-1.514 1.95,-5.439 1.773,-7.256 -0.115,-1.179 -0.792,-3.955 -1.042,-4.274 -0.095,-0.121 -0.254,-0.46 -0.352,-0.753 -0.656,-1.952 -4.853,-5.559 -7.427,-6.382 -0.353,-0.113 -0.84,-0.309 -1.083,-0.436 -0.244,-0.127 -0.593,-0.233 -0.776,-0.237 -0.183,-0.003 -0.708,-0.191 -1.167,-0.416 -0.458,-0.225 -0.966,-0.411 -1.129,-0.411 -0.163,-10e-4 -0.72,-0.151 -1.239,-0.334 -0.519,-0.182 -1.394,-0.413 -1.945,-0.513 -0.551,-0.1 -1.153,-0.288 -1.339,-0.418 -0.186,-0.13 -0.552,-0.237 -0.814,-0.237 -0.261,0 -1.013,-0.179 -1.671,-0.398 -0.658,-0.219 -1.609,-0.453 -2.113,-0.52 -0.504,-0.067 -1.119,-0.225 -1.366,-0.352 -0.248,-0.126 -0.847,-0.315 -1.332,-0.419 -0.485,-0.104 -1.032,-0.284 -1.217,-0.4 -0.184,-0.117 -0.597,-0.265 -0.918,-0.329 -0.321,-0.065 -0.846,-0.257 -1.167,-0.427 -0.321,-0.169 -0.846,-0.425 -1.166,-0.568 -0.778,-0.346 -1.539,-0.794 -1.748,-1.027 -0.093,-0.104 -0.544,-0.463 -1.002,-0.798 -3.433,-2.509 -4.164,-8.608 -1.498,-12.495 0.965,-1.408 3.836,-3.766 4.586,-3.767 0.14,0 0.41,-0.109 0.601,-0.243 0.19,-0.133 0.901,-0.399 1.578,-0.592 0.678,-0.192 1.495,-0.424 1.816,-0.516 1.59,-0.456 10.229,-0.318 11.157,0.179 0.179,0.096 0.887,0.282 1.573,0.413 0.686,0.131 1.473,0.356 1.75,0.499 0.277,0.143 0.638,0.26 0.803,0.261 0.283,0 2.346,0.967 2.772,1.299 0.107,0.083 0.453,0.238 0.768,0.345 0.314,0.106 0.689,0.298 0.833,0.427 0.869,0.783 1.806,0.186 2.381,-1.515 l 0.324,-0.96 -0.556,-0.458 C 348,43.387 347.188,42.91 346.5,42.58 c -0.687,-0.33 -1.527,-0.745 -1.866,-0.923 -0.339,-0.178 -0.7,-0.324 -0.802,-0.324 -0.102,0 -0.575,-0.18 -1.051,-0.401 -0.475,-0.221 -1.202,-0.454 -1.614,-0.519 -0.413,-0.065 -0.849,-0.197 -0.968,-0.294 -0.12,-0.097 -0.833,-0.276 -1.584,-0.398 -0.751,-0.122 -1.74,-0.306 -2.198,-0.41 -1.354,-0.307 -7.626,-0.334 -8.917,-0.039 M 46.886,39.501 c -0.779,0.314 -1.041,2.398 -0.401,3.189 l 0.319,0.393 9.718,0.084 9.718,0.083 0.211,0.417 c 0.167,0.33 0.211,5.701 0.213,25.932 l 0.003,25.516 0.352,0.318 c 0.59,0.532 3.301,0.364 3.588,-0.223 0.078,-0.161 0.18,-11.893 0.226,-26.071 0.046,-14.178 0.13,-25.824 0.186,-25.88 0.056,-0.056 4.422,-0.118 9.702,-0.139 11.109,-0.042 10.11,0.14 10.13,-1.848 0.023,-2.183 2.8,-1.94 -22.085,-1.928 -11.977,0.006 -21.677,0.076 -21.88,0.157 m 54.447,0.166 c -0.417,0.417 -0.484,2.563 -0.096,3.093 0.296,0.404 34.654,0.502 35.388,0.1 0.516,-0.282 0.57,-2.799 0.07,-3.251 -0.523,-0.474 -34.886,-0.418 -35.362,0.058 m 50.694,0.091 c -0.27,0.591 -0.279,54.871 -0.01,55.462 0.272,0.597 0.36,0.6 18.733,0.596 l 16.664,-0.005 0.564,-0.43 c 0.563,-0.429 0.563,-0.43 0.481,-1.586 -0.136,-1.898 1.661,-1.705 -16.364,-1.757 -14.313,-0.041 -15.747,-0.069 -15.952,-0.317 -0.188,-0.226 -0.241,-4.701 -0.31,-26.122 -0.046,-14.217 -0.144,-25.943 -0.218,-26.057 -0.296,-0.458 -3.366,-0.273 -3.588,0.216 m 63.343,0.2 c -0.271,0.344 -0.548,0.813 -0.617,1.042 -0.068,0.229 -0.26,0.679 -0.425,1 -4.10912,8.48774 -7.88127,17.660369 -11.998,26.076 -0.64,1.279 -1.163,2.404 -1.163,2.5 0,0.096 -0.381,0.961 -0.847,1.924 -0.467,0.962 -0.982,2.05 -1.146,2.417 -0.165,0.366 -0.488,1.079 -0.72,1.583 -0.231,0.504 -0.626,1.367 -0.877,1.917 -0.25,0.55 -0.783,1.7 -1.183,2.556 -0.401,0.856 -0.773,1.734 -0.827,1.951 -0.055,0.218 -0.205,0.483 -0.333,0.59 -0.129,0.106 -0.234,0.272 -0.234,0.368 0,0.159 -0.244,0.713 -1.413,3.201 -0.216,0.459 -0.586,1.247 -0.823,1.753 -0.19089,0.587403 -0.50688,1.184155 -0.742,1.683 -0.59147,1.16293 -1.06016,2.310725 -1.544,3.479 -0.705,1.315 -0.337,1.715 1.598,1.736 2.097,0.024 2.071,0.05 3.93,-4.151 0.549,-1.241 1.306,-2.913 1.661,-3.666 0.537,-1.144 1.95,-4.257 2.496,-5.5 1.03007,-2.280128 2.08194,-4.591706 3.079,-6.834 1.97073,-4.233136 3.93525,-8.725084 5.671,-12.5 0.212,-0.458 0.59,-1.283 0.84,-1.833 0.249,-0.55 0.745,-1.609 1.1,-2.352 0.356,-0.744 0.647,-1.413 0.647,-1.487 0,-0.074 0.216,-0.591 0.479,-1.148 0.264,-0.557 0.526,-1.126 0.583,-1.263 0.056,-0.138 0.172,-0.363 0.256,-0.5 0.165,-0.269 0.651,-1.337 1.517,-3.333 0.298,-0.688 0.87,-1.945 1.27,-2.793 0.44245,-1.218593 0.98693,-2.258462 1.562,-3.332 0,-0.5 0.414,-0.498 0.724,0.004 1.60085,2.995395 3.02083,6.216412 4.275,9.037 0.973,2.193 1.222,2.738 1.678,3.667 0.90541,2.236233 1.95444,4.096682 2.823,6.328 3.32447,8.675189 7.0639,14.634989 10.331,22.689 -0.002,0.082 0.343,0.862 0.766,1.733 0.422,0.871 0.941,1.958 1.152,2.417 1.918,4.164 1.947,4.222 2.26,4.507 0.343,0.312 3.219,0.371 3.577,0.073 0.37,-0.307 0.298,-1.232 -0.165,-2.122 -0.857,-1.645 -2.921,-6.033 -2.921,-6.209 0,-0.101 -0.149,-0.461 -0.331,-0.8 -0.182,-0.339 -0.529,-1.066 -0.771,-1.616 -0.243,-0.55 -0.806,-1.753 -1.253,-2.672 -1.54459,-3.425456 -3.24619,-7.216339 -4.632,-10.078 -0.466,-0.963 -0.847,-1.817 -0.847,-1.898 0,-0.082 -0.345,-0.869 -0.766,-1.75 -0.992,-2.075 -1.594,-3.364 -2.148,-4.602 -0.246,-0.55 -0.517,-1.113 -0.601,-1.25 -0.084,-0.138 -0.194,-0.363 -0.244,-0.5 -0.049,-0.138 -0.266,-0.625 -0.48,-1.083 -0.527,-1.122 -1.303,-2.837 -1.692,-3.736 -0.175,-0.405 -0.525,-1.144 -0.777,-1.642 -0.252,-0.498 -0.458,-0.986 -0.458,-1.084 0,-0.099 -0.103,-0.297 -0.228,-0.442 -0.124,-0.145 -0.366,-0.638 -0.536,-1.096 -0.169,-0.459 -0.592,-1.388 -0.939,-2.065 -0.347,-0.677 -0.631,-1.335 -0.631,-1.461 0,-0.127 -0.183,-0.585 -0.408,-1.019 -0.225,-0.434 -0.487,-0.976 -0.583,-1.205 -0.096,-0.229 -0.245,-0.53 -0.33,-0.667 -0.086,-0.138 -0.394,-0.775 -0.685,-1.417 -0.957,-2.108 -1.368,-2.991 -1.683,-3.616 -0.171,-0.339 -0.311,-0.724 -0.311,-0.855 0,-0.819 -0.996,-1.279 -2.767,-1.279 h -1.705 l -0.491,0.625 m 40.899,-0.312 c -0.452,0.499 -0.473,2.79 -0.029,3.116 0.273,0.201 2.238,0.241 12.5,0.254 13.037,0.018 14.248,0.044 14.745,0.309 0.177,0.095 0.856,0.248 1.509,0.341 0.653,0.092 1.481,0.318 1.84,0.501 0.359,0.183 0.817,0.333 1.019,0.333 0.201,0 0.598,0.171 0.881,0.381 0.284,0.209 0.716,0.467 0.961,0.573 0.557,0.242 2.724,2.272 3.051,2.859 0.134,0.24 0.4,0.774 0.591,1.187 0.191,0.413 0.472,0.975 0.625,1.25 0.455,0.819 0.401,5.894 -0.074,6.917 -0.191,0.412 -0.401,0.923 -0.466,1.134 -0.143,0.468 -1.268,2.172 -1.696,2.57 -0.724,0.672 -1.531,1.296 -1.677,1.296 -0.087,0 -0.33,0.183 -0.541,0.408 -0.211,0.224 -0.618,0.458 -0.904,0.519 -0.286,0.061 -0.708,0.211 -0.937,0.333 -2.231,1.19 -5.476,1.41 -19.75,1.338 -11.047,-0.055 -11.515,-0.038 -11.759,0.419 -0.424,0.79 -0.275,2.866 0.227,3.185 0.109,0.069 5.973,0.127 13.032,0.129 15.504,0.003 18.389,0.196 21,1.402 2.653,1.225 3.051,1.471 4.13,2.551 3.009,3.015 3.943,10.104 1.695,12.882 -0.111,0.138 -0.317,0.475 -0.457,0.75 -0.765,1.501 -4.266,4.081 -5.54,4.083 -0.185,0 -0.493,0.109 -0.682,0.242 -0.19,0.133 -1.05,0.356 -1.912,0.497 -0.862,0.14 -1.83,0.344 -2.151,0.454 -0.428,0.146 -4.391,0.217 -14.88,0.266 l -14.296,0.068 -0.268,0.409 c -0.383,0.584 -0.217,2.311 0.268,2.796 0.727,0.727 29.177,0.428 32.009,-0.337 0.504,-0.136 1.367,-0.35 1.917,-0.476 2.809,-0.644 5.606,-2.113 7.422,-3.899 1.051,-1.033 2.161,-2.422 2.161,-2.703 0,-0.1 0.157,-0.402 0.348,-0.67 0.192,-0.269 0.422,-0.768 0.511,-1.109 0.089,-0.342 0.267,-0.849 0.394,-1.129 0.67,-1.472 0.668,-6.592 -0.003,-8.411 -0.152,-0.411 -0.334,-1.01 -0.405,-1.331 -0.393,-1.774 -2.584,-4.668 -4.428,-5.848 -0.55,-0.352 -1.089,-0.716 -1.198,-0.809 -0.198,-0.17 -1.311,-0.643 -2.724,-1.158 -1.895,-0.691 -2.379,-1.235 -1.347,-1.513 0.356,-0.096 0.737,-0.282 0.846,-0.415 0.11,-0.132 0.517,-0.393 0.903,-0.581 0.727,-0.351 2.704,-2.166 3.437,-3.154 0.409,-0.552 0.717,-1.105 1.553,-2.787 1.231,-2.475 1.189,-7.795 -0.084,-10.735 -0.789,-1.821 -3.261,-4.768 -4.633,-5.521 -0.322,-0.177 -0.924,-0.516 -1.336,-0.754 -0.867,-0.499 -2.514,-1.143 -3.834,-1.5 -0.504,-0.136 -1.254,-0.351 -1.666,-0.478 -0.626,-0.193 -2.891,-0.45 -5.084,-0.577 -4.425,-0.257 -24.557,-0.141 -24.814,0.143 M 102.211,67.118 C 100.917,67.242 101,66.264 101,81.363 c 0,15.387 -0.12,14.22 1.476,14.364 2.901,0.262 2.685,1.27 2.688,-12.57 0.002,-9.746 0.04,-11.645 0.239,-11.917 0.231,-0.315 0.636,-0.325 15.709,-0.407 8.509,-0.046 15.565,-0.144 15.68,-0.218 0.384,-0.248 0.276,-2.835 -0.134,-3.206 C 136.335,67.116 105,66.852 102.211,67.118"
       inkscape:connector-curvature="0"
       style="fill:#35b870;fill-rule:evenodd;stroke:none"
       sodipodi:nodetypes="cccscccsccccccscccccscsccccsccscccscccsccccccccccccscccccccccccssssscsccccccccccccssccccccccsscccsccccccccccccssccccccccccccccccccccccccscccccccsccccccccccccsccccccccccccccccsscccsccccccssccsssscccsscccccccsscccsccccscsccccccccccccccccscccscccccccccccccccccccccsccccccc" />
  </g>
</svg>
